# xmcd
#
# Track frame offsets: 
#        201
#        21442
#        64766
#        88658
#        115727
#        160149
#        182123
#        190350
#        223797
#        241909
#
# Disc length: 3473 seconds
#
# Revision: 3
# Processed by: cddbd v1.5.2PL0 Copyright (c) Steve Scherf et al.
# Submitted via: ExactAudioCopy v1.0b3
#
DISCID=8a0d8f0a
DTITLE=Lurrie Bell - Cuttin' Heads
DYEAR=2004
DGENRE=Blues
TTITLE0=I've Got A Watch On You
TTITLE1=A Man And The Blues
TTITLE2=One Day
TTITLE3=I'll Be Your 44
TTITLE4=Leaning Tree
TTITLE5=Call Me On The Phone
TTITLE6=Smoke Stack Lightning
TTITLE7=I'll Play The Blues For You
TTITLE8=I Ain't Nobody
TTITLE9=4.59 Am
EXTD=YEAR: 2001
EXTT0=
EXTT1=
EXTT2=
EXTT3=
EXTT4=
EXTT5=
EXTT6=
EXTT7=
EXTT8=
EXTT9=
PLAYORDER=
